<svg width="20" height="20" viewBox="0 0 20 20" fill="none" xmlns="http://www.w3.org/2000/svg">
<g id="Frame">
<path id="Vector" d="M18.1633 9.74662L2.11084 1.69829C2.05845 1.67185 1.99957 1.661 1.94119 1.66703C1.88281 1.67305 1.82739 1.69571 1.7815 1.73229C1.73561 1.76888 1.70119 1.81787 1.68231 1.87344C1.66344 1.929 1.6609 1.98882 1.67501 2.04579L3.33001 8.80412C3.35501 8.90662 3.43001 8.98912 3.53001 9.02079L6.36334 9.99412L3.53167 10.9675C3.48281 10.9835 3.43891 11.0119 3.40418 11.0499C3.36944 11.0878 3.34505 11.134 3.33334 11.1841L1.67501 17.9525C1.66163 18.0093 1.66467 18.0688 1.68377 18.124C1.70288 18.1791 1.73726 18.2278 1.78292 18.2642C1.82858 18.3006 1.88364 18.3233 1.94169 18.3296C1.99975 18.3359 2.0584 18.3257 2.11084 18.3L18.1633 10.2975C18.2225 10.2678 18.2709 10.2203 18.3017 10.1616C18.338 10.0882 18.3438 10.0034 18.3179 9.92567C18.292 9.84796 18.2364 9.78361 18.1633 9.74662ZM3.56751 16.03L4.53334 12.0833L10.1975 10.1391C10.2279 10.1287 10.2543 10.109 10.273 10.0829C10.2916 10.0568 10.3017 10.0254 10.3017 9.99329C10.3017 9.96116 10.2916 9.92983 10.273 9.90368C10.2543 9.87754 10.2279 9.85788 10.1975 9.84746L4.53334 7.90662L3.57167 3.97662L15.6225 10.0191L3.56751 16.0291V16.03Z" fill="#13CCCF"/>
</g>
</svg>
