<svg width="20" height="20" viewBox="0 0 20 20" fill="none" xmlns="http://www.w3.org/2000/svg">
<g id="Frame" clip-path="url(#clip0_2858_4349)">
<path id="Vector" d="M16.5935 8.18125C17.0935 8.18125 17.4998 8.58875 17.4998 9.09125C17.5016 10.9116 16.8427 12.6707 15.6453 14.0418C14.448 15.4129 12.7937 16.3028 10.9898 16.5463L10.9873 18.1812H13.2135C13.4547 18.1812 13.686 18.2771 13.8566 18.4476C14.0271 18.6181 14.1229 18.8494 14.1229 19.0906C14.1229 19.3318 14.0271 19.5631 13.8566 19.7337C13.686 19.9042 13.4547 20 13.2135 20H6.78729C6.5461 20 6.3148 19.9042 6.14426 19.7337C5.97372 19.5631 5.87791 19.3318 5.87791 19.0906C5.87791 18.8494 5.97372 18.6181 6.14426 18.4476C6.3148 18.2771 6.5461 18.1812 6.78729 18.1812H9.17479V16.5662C7.33739 16.3599 5.6406 15.4832 4.40907 14.1041C3.17755 12.725 2.49776 10.9402 2.49979 9.09125C2.49332 8.96824 2.51197 8.84519 2.5546 8.72962C2.59722 8.61404 2.66293 8.50836 2.74772 8.419C2.83251 8.32964 2.9346 8.25847 3.04778 8.20984C3.16096 8.16121 3.28285 8.13614 3.40604 8.13614C3.52922 8.13614 3.65111 8.16121 3.76429 8.20984C3.87747 8.25847 3.97957 8.32964 4.06435 8.419C4.14914 8.50836 4.21485 8.61404 4.25747 8.72962C4.3001 8.84519 4.31875 8.96824 4.31229 9.09125C4.3113 9.83913 4.45763 10.5799 4.74292 11.2712C5.02821 11.9625 5.44687 12.5909 5.97501 13.1204C6.50314 13.6499 7.1304 14.0703 7.82097 14.3574C8.51155 14.6445 9.25191 14.7928 9.99978 14.7937C10.7477 14.7928 11.488 14.6445 12.1786 14.3574C12.8692 14.0703 13.4964 13.6499 14.0246 13.1204C14.5527 12.5909 14.9714 11.9625 15.2567 11.2712C15.5419 10.5799 15.6883 9.83913 15.6873 9.09125C15.6873 8.58875 16.0923 8.18125 16.5935 8.18125ZM9.98479 0C11.0445 0.00130857 12.0629 0.411661 12.8274 1.14548C13.592 1.87931 14.0438 2.87995 14.0885 3.93875L14.0923 4.1175V9.7525C14.0913 10.8425 13.6585 11.8877 12.8887 12.6594C12.1189 13.4311 11.0748 13.8664 9.98479 13.87C8.92603 13.8662 7.90937 13.455 7.14573 12.7216C6.3821 11.9882 5.93011 10.989 5.88354 9.93125L5.87854 9.7525V4.1175C5.87721 3.02701 6.30904 1.98064 7.07908 1.2085C7.84912 0.436354 8.8943 0.00165647 9.98479 0ZM9.98479 1.81875C8.76604 1.81875 7.76854 2.7725 7.69729 3.9775L7.69228 4.1175V9.75C7.69227 10.3584 7.93293 10.9421 8.36173 11.3737C8.79052 11.8053 9.37265 12.0498 9.98104 12.0537C10.5664 12.0523 11.1293 11.8281 11.5553 11.4267C11.9813 11.0253 12.2386 10.4767 12.2748 9.8925L12.2785 9.7525V4.1175C12.2785 2.8475 11.2523 1.8175 9.98479 1.8175V1.81875Z" fill="#E04949"/>
<path id="Vector_2" d="M18.8387 1.16126C19.1637 1.48626 19.1637 2.01376 18.8387 2.34001L2.33873 18.84C2.26196 18.9205 2.16986 18.9847 2.06788 19.029C1.96589 19.0734 1.85607 19.0968 1.74488 19.0981C1.63369 19.0993 1.52337 19.0783 1.42042 19.0362C1.31747 18.9942 1.22398 18.932 1.14543 18.8533C1.06688 18.7746 1.00488 18.6809 0.963059 18.5779C0.921241 18.4749 0.900456 18.3645 0.901929 18.2533C0.903401 18.1421 0.927101 18.0324 0.971633 17.9305C1.01616 17.8286 1.08063 17.7366 1.16123 17.66L17.6612 1.16001C17.9862 0.83501 18.5137 0.83501 18.8387 1.16001V1.16126Z" fill="#E04949"/>
</g>
<defs>
<clipPath id="clip0_2858_4349">
<rect width="20" height="20" fill="white"/>
</clipPath>
</defs>
</svg>
